<svg width="224" height="224" fill="none" xmlns="http://www.w3.org/2000/svg"><g filter="url(#a)"><path d="M112 21.5c49.775 0 90.5 40.725 90.5 90.5s-40.725 90.5-90.5 90.5-90.5-40.725-90.5-90.5S62.225 21.5 112 21.5Zm0 18.1c-40.001 0-72.4 32.399-72.4 72.4 0 40.001 32.399 72.4 72.4 72.4 40.001 0 72.4-32.399 72.4-72.4 0-40.001-32.399-72.4-72.4-72.4ZM93.9 66.75H57.7v18.1h18.1v72.4h18.1v-90.5Zm54.3 0h-18.1c-9.955 0-18.1 8.145-18.1 18.1v54.3c0 4.8 1.907 9.404 5.301 12.799a18.104 18.104 0 0 0 12.799 5.301h18.1c10.045 0 18.1-8.054 18.1-18.1v-54.3a18.101 18.101 0 0 0-18.1-18.1Zm0 72.4h-18.1v-54.3h18.1v54.3Z" fill="#D9D9D9"/></g><defs><filter id="a" x="17.5" y="21.5" width="189" height="189" filterUnits="userSpaceOnUse" color-interpolation-filters="sRGB"><feFlood flood-opacity="0" result="BackgroundImageFix"/><feColorMatrix in="SourceAlpha" values="0 0 0 0 0 0 0 0 0 0 0 0 0 0 0 0 0 0 127 0" result="hardAlpha"/><feOffset dy="4"/><feGaussianBlur stdDeviation="2"/><feComposite in2="hardAlpha" operator="out"/><feColorMatrix values="0 0 0 0 0 0 0 0 0 0 0 0 0 0 0 0 0 0 0.25 0"/><feBlend in2="BackgroundImageFix" result="effect1_dropShadow_183_226"/><feBlend in="SourceGraphic" in2="effect1_dropShadow_183_226" result="shape"/></filter></defs></svg>