<svg width="548" height="403" fill="none" xmlns="http://www.w3.org/2000/svg"><path d="M91.874 276.542h60.67c8.342 0 15.486-2.965 21.432-8.895 5.945-5.93 8.913-13.051 8.903-21.361V216.03c0-8.32-2.973-15.446-8.918-21.376-5.946-5.93-13.085-8.89-21.417-8.88h-30.335v-30.256h60.67v-30.256H91.874v90.768h60.67v30.256h-60.67v30.256Zm-60.67 60.512c-8.342 0-15.486-2.965-21.432-8.895C3.827 322.229.86 315.108.87 306.798V95.006c0-8.32 2.973-15.446 8.919-21.376 5.945-5.93 13.084-8.89 21.416-8.88H243.55c8.342 0 15.486 2.965 21.432 8.895 5.945 5.93 8.913 13.05 8.903 21.361v211.792c0 8.32-2.973 15.446-8.919 21.376-5.945 5.93-13.084 8.89-21.416 8.88H31.204Zm0-30.256H243.55V95.006H31.204v211.792Zm486.461 1.099V96.105H305.32v211.792h212.345Zm0-242.048a30.374 30.374 0 0 1 21.45 8.861A30.216 30.216 0 0 1 548 96.105v211.792c0 8.024-3.196 15.72-8.885 21.394a30.375 30.375 0 0 1-21.45 8.862H305.32a30.376 30.376 0 0 1-21.45-8.862 30.216 30.216 0 0 1-8.885-21.394V96.105c0-8.025 3.196-15.72 8.885-21.395a30.376 30.376 0 0 1 21.45-8.861h212.345Zm-121.34 60.512h30.335a30.374 30.374 0 0 1 21.45 8.861 30.216 30.216 0 0 1 8.885 21.395v90.768c0 8.024-3.196 15.72-8.885 21.394a30.375 30.375 0 0 1-21.45 8.862h-30.335a30.376 30.376 0 0 1-21.45-8.862 30.216 30.216 0 0 1-8.885-21.394v-90.768a30.216 30.216 0 0 1 8.885-21.395 30.375 30.375 0 0 1 21.45-8.861Zm0 30.256v90.768h30.335v-90.768h-30.335Z" fill="#E56F7D"/></svg>