<svg width="224" height="224" fill="none" xmlns="http://www.w3.org/2000/svg"><path d="M112 21.5c49.775 0 90.5 40.725 90.5 90.5s-40.725 90.5-90.5 90.5-90.5-40.725-90.5-90.5S62.225 21.5 112 21.5Zm0 18.1c-40.001 0-72.4 32.399-72.4 72.4 0 40.001 32.399 72.4 72.4 72.4 40.001 0 72.4-32.399 72.4-72.4 0-40.001-32.399-72.4-72.4-72.4ZM93.9 66.75H57.7v18.1h18.1v72.4h18.1v-90.5Zm54.3 0h-18.1c-9.955 0-18.1 8.145-18.1 18.1v54.3c0 4.8 1.907 9.404 5.301 12.799a18.104 18.104 0 0 0 12.799 5.301h18.1c10.045 0 18.1-8.054 18.1-18.1v-54.3a18.101 18.101 0 0 0-18.1-18.1Zm0 72.4h-18.1v-54.3h18.1v54.3Z" fill="#E56F7D"/></svg>