<svg width="224" height="224" fill="none" xmlns="http://www.w3.org/2000/svg"><g filter="url(#a)"><path d="M30.572 69.693a10.452 10.452 0 0 1-4.86-1.192 10.597 10.597 0 0 1-5.216-6.204c-.849-2.678-.6-5.585.69-8.08A101.76 101.76 0 0 1 56.95 14.8a10.58 10.58 0 0 1 16.35 7.08 10.612 10.612 0 0 1-5.057 10.844 79.553 79.553 0 0 0-28.231 31.253 10.576 10.576 0 0 1-9.44 5.715Zm172.242-15.476A101.752 101.752 0 0 0 167.05 14.8a10.584 10.584 0 0 0-8.092-1.572 10.575 10.575 0 0 0-6.765 4.716 10.605 10.605 0 0 0 .442 11.96 10.6 10.6 0 0 0 3.122 2.82 79.553 79.553 0 0 1 28.231 31.253 10.592 10.592 0 0 0 9.44 5.715c1.692.002 3.36-.407 4.861-1.192a10.609 10.609 0 0 0 4.525-14.284Zm-9.757 96.64a17.684 17.684 0 0 1-4.714 25.707 17.622 17.622 0 0 1-9.295 2.666h-28.884a38.87 38.87 0 0 1-13.349 22.79A38.786 38.786 0 0 1 112 211a38.786 38.786 0 0 1-24.815-8.98 38.874 38.874 0 0 1-13.35-22.79H44.953a17.62 17.62 0 0 1-9.304-2.655 17.661 17.661 0 0 1-6.507-7.17 17.684 17.684 0 0 1 1.775-18.548c6.326-8.242 13.878-23.515 14.01-49.416a67.193 67.193 0 0 1 19.66-47.473 67.017 67.017 0 0 1 47.427-19.649 67.019 67.019 0 0 1 47.412 19.686 67.195 67.195 0 0 1 19.623 47.489c.132 25.848 7.684 41.121 14.009 49.363Zm-64.895 28.373H95.838a17.654 17.654 0 0 0 6.507 7.7 17.63 17.63 0 0 0 25.817-7.7Zm44.11-21.2c-7.198-11.484-14.283-29.655-14.415-56.483a45.949 45.949 0 0 0-13.092-33.069 45.867 45.867 0 0 0-14.986-10.199 45.824 45.824 0 0 0-50.523 10.162 45.942 45.942 0 0 0-9.89 15.202 45.988 45.988 0 0 0-3.24 17.851c-.133 26.872-7.217 45.052-14.416 56.536h120.562Z" fill="#D9D9D9"/></g><defs><filter id="a" x="16" y="13" width="192" height="206" filterUnits="userSpaceOnUse" color-interpolation-filters="sRGB"><feFlood flood-opacity="0" result="BackgroundImageFix"/><feColorMatrix in="SourceAlpha" values="0 0 0 0 0 0 0 0 0 0 0 0 0 0 0 0 0 0 127 0" result="hardAlpha"/><feOffset dy="4"/><feGaussianBlur stdDeviation="2"/><feComposite in2="hardAlpha" operator="out"/><feColorMatrix values="0 0 0 0 0 0 0 0 0 0 0 0 0 0 0 0 0 0 0.25 0"/><feBlend in2="BackgroundImageFix" result="effect1_dropShadow_183_224"/><feBlend in="SourceGraphic" in2="effect1_dropShadow_183_224" result="shape"/></filter></defs></svg>