<svg width="224" height="224" fill="none" xmlns="http://www.w3.org/2000/svg"><g filter="url(#a)" fill="#D9D9D9"><path d="M49.813 137.646h20.666c2.842 0 5.275-1.013 7.3-3.038 2.026-2.026 3.037-4.457 3.034-7.296v-10.333c0-2.841-1.013-5.275-3.038-7.3-2.026-2.026-4.458-3.037-7.296-3.033H60.146V96.312h20.666V85.98h-31v31H70.48v10.333H49.813v10.334Zm-20.667 20.666c-2.842 0-5.275-1.012-7.3-3.038-2.026-2.025-3.037-4.457-3.034-7.295V75.646c0-2.842 1.013-5.275 3.038-7.3 2.026-2.026 4.458-3.037 7.296-3.034h72.333c2.842 0 5.275 1.013 7.301 3.038 2.025 2.026 3.036 4.458 3.032 7.296v72.333c0 2.842-1.012 5.275-3.038 7.301-2.025 2.025-4.457 3.036-7.295 3.032H29.146Zm0-10.333h72.333V75.646H29.146v72.333Zm165.708.375V76.021h-72.333v72.333h72.333Zm0-82.667a10.333 10.333 0 0 1 10.334 10.334v72.333a10.333 10.333 0 0 1-10.334 10.334h-72.333a10.333 10.333 0 0 1-10.333-10.334V76.021a10.332 10.332 0 0 1 10.333-10.334h72.333Zm-41.333 20.667h10.333a10.334 10.334 0 0 1 10.334 10.334v31a10.333 10.333 0 0 1-10.334 10.333h-10.333a10.333 10.333 0 0 1-10.333-10.333v-31a10.332 10.332 0 0 1 10.333-10.334Zm0 10.334v31h10.333v-31h-10.333Z"/></g><defs><filter id="a" x="14.813" y="65.313" width="194.375" height="101.375" filterUnits="userSpaceOnUse" color-interpolation-filters="sRGB"><feFlood flood-opacity="0" result="BackgroundImageFix"/><feColorMatrix in="SourceAlpha" values="0 0 0 0 0 0 0 0 0 0 0 0 0 0 0 0 0 0 127 0" result="hardAlpha"/><feOffset dy="4"/><feGaussianBlur stdDeviation="2"/><feComposite in2="hardAlpha" operator="out"/><feColorMatrix values="0 0 0 0 0 0 0 0 0 0 0 0 0 0 0 0 0 0 0.25 0"/><feBlend in2="BackgroundImageFix" result="effect1_dropShadow_107_76"/><feBlend in="SourceGraphic" in2="effect1_dropShadow_107_76" result="shape"/></filter></defs></svg>