<svg width="224" height="224" fill="none" xmlns="http://www.w3.org/2000/svg"><g filter="url(#a)"><path d="M79.297 28.148v-2.964c0-2.359.968-4.62 2.69-6.288a9.34 9.34 0 0 1 6.496-2.605 9.34 9.34 0 0 1 6.495 2.605 8.749 8.749 0 0 1 2.69 6.288v2.964c0 2.358-.968 4.62-2.69 6.288a9.341 9.341 0 0 1-6.495 2.605 9.34 9.34 0 0 1-6.495-2.605c-1.723-1.668-2.69-3.93-2.69-6.288Zm-52.05 68.177a9.341 9.341 0 0 0 6.495-2.604c1.723-1.668 2.69-3.93 2.69-6.288 0-2.359-.967-4.62-2.69-6.288a9.341 9.341 0 0 0-6.495-2.605h-3.062a9.341 9.341 0 0 0-6.495 2.605c-1.722 1.667-2.69 3.93-2.69 6.288s.968 4.62 2.69 6.288a9.341 9.341 0 0 0 6.495 2.604h3.062Zm85.883-50.851a9.469 9.469 0 0 0 7.013-.482 9.149 9.149 0 0 0 2.832-2.128 8.84 8.84 0 0 0 1.775-3.015l3.062-8.892a8.644 8.644 0 0 0-.647-6.653c-1.101-2.052-2.984-3.608-5.25-4.338a9.46 9.46 0 0 0-6.887.425c-2.152 1.003-3.815 2.778-4.638 4.948l-3.062 8.893a8.637 8.637 0 0 0 .499 6.783c1.088 2.108 2.995 3.712 5.303 4.459Zm-79.606 60.204-9.186 2.964a9.29 9.29 0 0 0-3.22 1.668 8.957 8.957 0 0 0-2.293 2.751 8.63 8.63 0 0 0-.563 6.909 8.824 8.824 0 0 0 1.82 3.065 9.149 9.149 0 0 0 2.909 2.137 9.459 9.459 0 0 0 7.15.336l9.185-2.964a9.291 9.291 0 0 0 3.22-1.668 8.956 8.956 0 0 0 2.294-2.751 8.63 8.63 0 0 0 .563-6.909 8.827 8.827 0 0 0-1.82-3.065 9.15 9.15 0 0 0-2.91-2.137 9.404 9.404 0 0 0-3.54-.87 9.44 9.44 0 0 0-3.61.534Zm151.505 44.871a14.798 14.798 0 0 1 3.32 4.809 14.404 14.404 0 0 1 1.166 5.673c0 1.947-.396 3.875-1.166 5.673a14.798 14.798 0 0 1-3.32 4.809l-9.706 9.397a15.35 15.35 0 0 1-4.968 3.214 15.744 15.744 0 0 1-5.859 1.129c-2.011 0-4.003-.384-5.86-1.129a15.35 15.35 0 0 1-4.968-3.214l-34.835-33.726-13.097 29.176a14.812 14.812 0 0 1-5.611 6.483 15.53 15.53 0 0 1-8.374 2.41h-.765a15.473 15.473 0 0 1-8.54-2.998 14.694 14.694 0 0 1-5.238-7.185L37.198 56.427a14.369 14.369 0 0 1-.305-8.018 14.704 14.704 0 0 1 4.055-6.997 15.449 15.449 0 0 1 7.227-3.926 15.792 15.792 0 0 1 8.282.296l122.532 38.735c2.932.945 5.5 2.728 7.366 5.113a14.533 14.533 0 0 1 3.088 8.25 14.459 14.459 0 0 1-2.271 8.494 15.177 15.177 0 0 1-6.835 5.762l-30.136 12.687 34.828 33.726Zm-15.156 10.478-35.846-34.711a14.732 14.732 0 0 1-3.799-6.115 14.35 14.35 0 0 1-.408-7.124 14.597 14.597 0 0 1 3.079-6.484 15.25 15.25 0 0 1 5.851-4.339l26.79-11.272L56.556 56.523l35.586 105.505 11.642-25.937a14.881 14.881 0 0 1 4.485-5.663 15.535 15.535 0 0 1 6.698-2.978 15.62 15.62 0 0 1 2.863-.267c4.057.003 7.947 1.565 10.816 4.343l35.853 34.711 5.374-5.21Z" fill="#E56F7D"/></g><defs><filter id="a" x="0" y="0" width="224" height="228" filterUnits="userSpaceOnUse" color-interpolation-filters="sRGB"><feFlood flood-opacity="0" result="BackgroundImageFix"/><feBlend in="SourceGraphic" in2="BackgroundImageFix" result="shape"/><feColorMatrix in="SourceAlpha" values="0 0 0 0 0 0 0 0 0 0 0 0 0 0 0 0 0 0 127 0" result="hardAlpha"/><feOffset dy="4"/><feGaussianBlur stdDeviation="2"/><feComposite in2="hardAlpha" operator="arithmetic" k2="-1" k3="1"/><feColorMatrix values="0 0 0 0 0 0 0 0 0 0 0 0 0 0 0 0 0 0 0.25 0"/><feBlend in2="shape" result="effect1_innerShadow_183_217"/></filter></defs></svg>