<svg width="156" height="21" fill="none" xmlns="http://www.w3.org/2000/svg"><path d="M7.824 20.3c-1.4 0-2.741-.183-4.025-.55-1.283-.383-2.316-.875-3.1-1.475l1.375-3.05c.75.533 1.634.975 2.65 1.325 1.034.333 2.075.5 3.125.5.8 0 1.442-.075 1.925-.225.5-.167.867-.392 1.1-.675a1.49 1.49 0 0 0 .35-.975c0-.467-.183-.833-.55-1.1-.366-.283-.85-.508-1.45-.675-.6-.183-1.266-.35-2-.5a28.397 28.397 0 0 1-2.175-.6 9.288 9.288 0 0 1-1.975-.9A4.54 4.54 0 0 1 1.6 9.95c-.366-.6-.55-1.367-.55-2.3 0-1 .267-1.908.8-2.725.55-.833 1.367-1.492 2.45-1.975 1.1-.5 2.475-.75 4.125-.75 1.1 0 2.184.133 3.25.4 1.067.25 2.009.633 2.825 1.15l-1.25 3.075A10.228 10.228 0 0 0 10.8 5.8a8.712 8.712 0 0 0-2.4-.35c-.783 0-1.425.092-1.925.275-.5.183-.858.425-1.075.725a1.6 1.6 0 0 0-.325 1c0 .45.184.817.55 1.1.367.267.85.483 1.45.65.6.167 1.259.333 1.975.5.734.167 1.459.358 2.175.575a8.35 8.35 0 0 1 2 .875c.6.367 1.084.85 1.45 1.45.384.6.575 1.358.575 2.275 0 .983-.275 1.883-.825 2.7-.55.817-1.375 1.475-2.475 1.975-1.083.5-2.458.75-4.125.75ZM25.917 6.35c1.066 0 2.016.217 2.85.65.85.417 1.516 1.067 2 1.95.483.867.725 1.983.725 3.35V20h-3.9v-7.1c0-1.083-.242-1.883-.725-2.4-.467-.517-1.134-.775-2-.775-.617 0-1.175.133-1.675.4-.484.25-.867.642-1.15 1.175-.267.533-.4 1.217-.4 2.05V20h-3.9V1.45h3.9v8.825l-.875-1.125a4.982 4.982 0 0 1 2.075-2.075c.9-.483 1.925-.725 3.075-.725ZM41.524 20.2c-1.433 0-2.708-.3-3.825-.9a7.006 7.006 0 0 1-2.625-2.45c-.633-1.05-.95-2.242-.95-3.575 0-1.35.317-2.542.95-3.575A6.752 6.752 0 0 1 37.7 7.25c1.117-.6 2.392-.9 3.825-.9 1.417 0 2.684.3 3.8.9 1.117.583 1.992 1.392 2.625 2.425.634 1.033.95 2.233.95 3.6 0 1.333-.316 2.525-.95 3.575-.633 1.033-1.508 1.85-2.625 2.45-1.116.6-2.383.9-3.8.9Zm0-3.2c.65 0 1.234-.15 1.75-.45.517-.3.925-.725 1.225-1.275.3-.567.45-1.233.45-2 0-.783-.15-1.45-.45-2-.3-.55-.708-.975-1.225-1.275a3.42 3.42 0 0 0-1.75-.45c-.65 0-1.233.15-1.75.45a3.41 3.41 0 0 0-1.25 1.275c-.3.55-.45 1.217-.45 2 0 .767.15 1.433.45 2 .317.55.734.975 1.25 1.275.517.3 1.1.45 1.75.45Zm12.691 3-4.85-13.45h3.675l4.025 11.575h-1.75l4.2-11.575h3.3l4.075 11.575h-1.75L69.29 6.55h3.45L67.865 20H64.09l-3.575-9.925h1.15L57.965 20h-3.75Zm20.613 0V2.5h7.575c1.567 0 2.917.258 4.05.775 1.133.5 2.008 1.225 2.625 2.175.617.95.925 2.083.925 3.4 0 1.3-.308 2.425-.925 3.375-.617.95-1.492 1.683-2.625 2.2-1.133.5-2.483.75-4.05.75h-5.325l1.8-1.825V20h-4.05Zm4.05-6.2-1.8-1.925h5.1c1.25 0 2.184-.267 2.8-.8.617-.533.925-1.275.925-2.225 0-.967-.308-1.717-.925-2.25-.616-.533-1.55-.8-2.8-.8h-5.1l1.8-1.925V13.8Zm22.161-7.45c1.066 0 2.016.217 2.85.65.85.417 1.516 1.067 2 1.95.483.867.725 1.983.725 3.35V20h-3.9v-7.1c0-1.083-.242-1.883-.725-2.4-.467-.517-1.134-.775-2-.775-.617 0-1.175.133-1.675.4-.484.25-.867.642-1.15 1.175-.267.533-.4 1.217-.4 2.05V20h-3.9V1.45h3.9v8.825l-.875-1.125a4.982 4.982 0 0 1 2.075-2.075c.9-.483 1.925-.725 3.075-.725Zm15.607 13.85c-1.433 0-2.708-.3-3.825-.9a7.006 7.006 0 0 1-2.625-2.45c-.633-1.05-.95-2.242-.95-3.575 0-1.35.317-2.542.95-3.575a6.752 6.752 0 0 1 2.625-2.45c1.117-.6 2.392-.9 3.825-.9 1.417 0 2.684.3 3.8.9 1.117.583 1.992 1.392 2.625 2.425.634 1.033.95 2.233.95 3.6 0 1.333-.316 2.525-.95 3.575-.633 1.033-1.508 1.85-2.625 2.45-1.116.6-2.383.9-3.8.9Zm0-3.2c.65 0 1.234-.15 1.75-.45.517-.3.925-.725 1.225-1.275.3-.567.45-1.233.45-2 0-.783-.15-1.45-.45-2-.3-.55-.708-.975-1.225-1.275-.516-.3-1.1-.45-1.75-.45-.65 0-1.233.15-1.75.45a3.41 3.41 0 0 0-1.25 1.275c-.3.55-.45 1.217-.45 2 0 .767.15 1.433.45 2 .317.55.734.975 1.25 1.275.517.3 1.1.45 1.75.45Zm9.982 3V1.45h3.9V20h-3.9Zm7.52 0V6.55h3.9V20h-3.9Zm1.95-15.325c-.717 0-1.3-.208-1.75-.625a2.027 2.027 0 0 1-.675-1.55c0-.617.225-1.133.675-1.55.45-.417 1.033-.625 1.75-.625.717 0 1.3.2 1.75.6.45.383.675.883.675 1.5 0 .65-.225 1.192-.675 1.625-.433.417-1.017.625-1.75.625ZM148.067 20.2c-1.433 0-2.708-.3-3.825-.9a7.006 7.006 0 0 1-2.625-2.45c-.633-1.05-.95-2.242-.95-3.575 0-1.35.317-2.542.95-3.575a6.752 6.752 0 0 1 2.625-2.45c1.117-.6 2.392-.9 3.825-.9 1.417 0 2.684.3 3.8.9 1.117.583 1.992 1.392 2.625 2.425.634 1.033.95 2.233.95 3.6 0 1.333-.316 2.525-.95 3.575-.633 1.033-1.508 1.85-2.625 2.45-1.116.6-2.383.9-3.8.9Zm0-3.2c.65 0 1.234-.15 1.75-.45.517-.3.925-.725 1.225-1.275.3-.567.45-1.233.45-2 0-.783-.15-1.45-.45-2-.3-.55-.708-.975-1.225-1.275-.516-.3-1.1-.45-1.75-.45-.65 0-1.233.15-1.75.45a3.41 3.41 0 0 0-1.25 1.275c-.3.55-.45 1.217-.45 2 0 .767.15 1.433.45 2 .317.55.734.975 1.25 1.275.517.3 1.1.45 1.75.45Z" fill="#E56F7D"/></svg>